<?xml version="1.0" encoding="iso-8859-1"?>
<!-- Generator: Adobe Illustrator 19.0.0, SVG Export Plug-In . SVG Version: 6.00 Build 0)  -->
<svg version="1.1" id="Capa_1" xmlns="http://www.w3.org/2000/svg" xmlns:xlink="http://www.w3.org/1999/xlink" x="0px" y="0px"
	 viewBox="0 0 462.262 462.262" style="enable-background:new 0 0 462.262 462.262;" xml:space="preserve">
<path d="M447.5,387.632H431v-8.5c0-12.958-10.542-23.5-23.5-23.5H255v-47.224c10.543-6.033,18.566-16.056,22-28.295
	c21.321,1.649,38.448,2.517,50.5,2.517c62.683,0,100.483-27.954,121.156-51.405c18.14-20.577,18.141-51.611,0.001-72.188
	c-20.673-23.451-58.474-51.406-121.157-51.406c-8.643,0-20.261,0.587-32.444,1.243c-5.023,0.295-6.409,4.312-7.422,7.244
	c-0.483,1.402-5.758,16.812-7.848,22.934c-3.383,9.917-12.7,16.579-23.184,16.579H191v-56.5c0-12.958-10.542-23.5-23.5-23.5
	S144,86.172,144,99.13v5.388l-52.75-33.71C79.759,63.495,66.484,59.63,52.863,59.63H7.5c-2.97,0-5.659,1.752-6.859,4.468
	c-1.201,2.716-0.686,5.884,1.313,8.081l59.81,65.718C53.414,143.623,48,153.224,48,163.89v23.74H7.5c-4.143,0-7.5,3.358-7.5,7.5
	s3.357,7.5,7.5,7.5H48v23.74c0,10.638,5.385,20.215,13.696,25.947l-59.748,65.77c-1.995,2.197-2.508,5.364-1.307,8.078
	c1.201,2.714,3.891,4.465,6.858,4.465h45.363c13.621,0,26.895-3.865,38.399-11.186l78.378-50.088
	c4.921,0.57,9.765,1.124,14.531,1.66c1.304,16.006,10.57,29.785,23.828,37.367v47.248H55.5c-12.958,0-23.5,10.542-23.5,23.5v8.5
	H15.5c-4.143,0-7.5,3.358-7.5,7.5s3.357,7.5,7.5,7.5h432c4.143,0,7.5-3.358,7.5-7.5S451.643,387.632,447.5,387.632z
	 M437.405,168.955c13.154,14.922,13.154,37.428-0.001,52.351c-7.472,8.476-17.454,17.601-30.404,25.495V143.459
	C419.951,151.354,429.933,160.479,437.405,168.955z M167.5,90.63c4.687,0,8.5,3.813,8.5,8.5v23.796
	c-3.539-1.373-7.396-1.892-11.25-1.442c-1.903,0.222-3.832,0.452-5.75,0.678V99.13C159,94.443,162.814,90.63,167.5,90.63z
	 M52.863,74.63c10.764,0,21.253,3.055,30.321,8.826L144,122.32v0.81c0,0.276,0.017,0.549,0.046,0.817
	c-21.602,2.612-44.04,5.456-66.974,8.488c-0.009-0.01-0.017-0.021-0.026-0.032L24.467,74.63H52.863z M159.5,187.63H63v-23.74
	c0-8.244,6.176-15.279,14.365-16.364c30.872-4.09,60.858-7.839,89.127-11.144c0.345-0.04,0.688-0.06,1.027-0.06
	c2.081,0,4.052,0.748,5.635,2.157c1.835,1.633,2.846,3.886,2.846,6.344v18.307c0,4.142,3.357,7.5,7.5,7.5h73.103
	c16.902,0,31.924-10.744,37.38-26.735c3.647-10.687,5.744-16.813,6.946-20.314c10.069-0.526,19.473-0.951,26.571-0.951
	c26.035,0,47.294,5.248,64.5,12.953v119.093c-17.206,7.705-38.465,12.953-64.5,12.953c-28.177,0-84.883-4.868-158.616-13.458
	c-0.093-0.013-0.186-0.023-0.28-0.033c-28.15-3.281-58.773-7.103-91.24-11.405C69.175,241.649,63,234.614,63,226.37v-23.74h96.5
	c4.143,0,7.5-3.358,7.5-7.5S163.643,187.63,159.5,187.63z M83.197,306.797c-9.081,5.779-19.57,8.833-30.334,8.833H24.446
	l52.149-57.405c0.122-0.135,0.231-0.276,0.342-0.417c24.167,3.196,47.32,6.127,69.199,8.767L83.197,306.797z M261.636,278.853
	c-4.711,12.356-16.491,20.777-30.136,20.777c-16.017,0-29.355-11.649-32.01-26.917C222.422,275.207,243.284,277.269,261.636,278.853
	z M223,313.853c2.76,0.501,5.598,0.777,8.5,0.777c2.899,0,5.739-0.26,8.5-0.758v41.759h-17V313.853z M47,379.132
	c0-4.687,3.813-8.5,8.5-8.5h352c4.687,0,8.5,3.813,8.5,8.5v8.5H47V379.132z"/>
<g>
</g>
<g>
</g>
<g>
</g>
<g>
</g>
<g>
</g>
<g>
</g>
<g>
</g>
<g>
</g>
<g>
</g>
<g>
</g>
<g>
</g>
<g>
</g>
<g>
</g>
<g>
</g>
<g>
</g>
</svg>
