<?xml version="1.0" encoding="iso-8859-1"?>
<!-- Generator: Adobe Illustrator 19.0.0, SVG Export Plug-In . SVG Version: 6.00 Build 0)  -->
<svg version="1.1" id="Capa_1" xmlns="http://www.w3.org/2000/svg" xmlns:xlink="http://www.w3.org/1999/xlink" x="0px" y="0px"
	 viewBox="0 0 96.025 96.025" style="enable-background:new 0 0 96.025 96.025;" xml:space="preserve">
<g>
	<g>
		<path d="M94.213,72.025c-0.3-0.5-0.5-0.9-0.9-1.4c-0.2-0.2-0.4-0.5-0.5-0.7l-0.4-0.4l-7.1-7l-3.7-3.5l-0.9-0.9
			c-0.3-0.3-0.5-0.5-1-0.9c-0.8-0.7-1.7-1.3-2.7-1.8c-1.1-0.5-2.3-0.9-3.6-1c-1.3-0.1-2.6,0.2-3.7,0.6c-1.2,0.4-2.1,1.1-3.1,1.8
			l-0.5,0.4l-0.6,0.5l-1,0.9l-3.9,3.6l-1.4,1.3c-1.4-0.8-2.6-1.3-3.4-1.9c-1.3-0.9-2.7-1.9-4-2.9c-2.6-2.1-5.1-4.3-7.5-6.8
			c-4.3-4.5-8.4-9.4-10.8-14.6c0.3-0.3,0.7-0.6,1-0.9c1.3-1.2,2.4-2.4,3.6-3.6l1.8-1.8c0.8-0.8,1.5-1.7,2.1-2.8
			c0.6-1.1,1.1-2.3,1.3-3.7c0.2-1.3,0.1-2.8-0.2-4.1c-0.4-1.3-0.9-2.4-1.6-3.4c-0.3-0.5-0.8-1.1-1.1-1.4l-0.4-0.3l-0.5-0.5l-3.5-3.5
			l-7.1-7.1l-0.9-0.9c-0.4-0.4-0.9-0.8-1.3-1.1c-1-0.7-2.1-1.3-3.4-1.7s-2.7-0.6-4-0.5c-1.3,0.1-2.6,0.5-3.7,1.1
			c-2.3,1.1-3.8,2.9-4.8,3.9l-3.5,3.5l-1.8,1.8l-0.5,0.4l-0.5,0.6c-0.4,0.4-0.7,0.8-1,1.2c-1.3,1.7-2.3,3.7-2.9,5.8
			c-0.3,1-0.4,2.2-0.5,3.1c-0.1,1-0.1,1.9-0.1,2.9c0,1.9,0.3,3.8,0.6,5.6c0.2,1.1,0.8,2.6,1.4,3.7c0.6,1.2,1.3,2.2,1.7,2.7
			c0.8,0.8,1.2,0.5,1.2-0.5c0.1-1-0.2-2.8-0.4-4.8c-0.3-3.4-0.4-7,0.5-10.4c0.4-1.7,1.2-3.2,2.3-4.5c0.5-0.7,1.1-1.2,1.8-1.8
			c0.7-0.6,1.5-1.3,2.2-1.9c1.4-1.3,2.9-2.6,4.4-3.9l0.5-0.5l0.3-0.3l0,0l0,0c0.1-0.1-0.1,0.1-0.1,0.1l0,0l0.1-0.1l0.1-0.1
			c0.4-0.4,0.6-0.5,1-0.7c0.6-0.4,1.3-0.6,1.9-0.6c1.3-0.1,2.5,0.3,3.6,1.3c1.4,1.4,2.8,2.9,4.2,4.3l6.2,6.3l1.5,1.6
			c0.1,0.1,0.5,0.6,0.6,0.7c0.1,0.2,0.3,0.4,0.4,0.6c0.5,0.9,0.7,1.6,0.6,2.3c-0.1,0.4-0.2,0.7-0.4,1.1s-0.5,0.8-0.8,1.2
			c-0.2,0.2-0.4,0.4-0.6,0.6l-0.8,0.8l-1.6,1.6c-1.1,1-2.1,2-3.1,3c-0.5,0.5-1.1,1-1.6,1.4h-0.1l-0.2,0.2l-0.1,0.1
			c-0.1,0.1-0.3,0.3-0.4,0.5c-0.3,0.4-0.6,0.9-0.8,1.6c-0.1,0.8-0.1,1.5,0,2s0.2,0.8,0.3,1v0.1v0.1c1.4,3.6,3.5,6.9,5.7,9.9l0.8,1.1
			l0.5,0.6l0.4,0.5c0.5,0.7,1.2,1.4,1.8,2.1c1.2,1.4,2.4,2.8,3.7,4.1c2.6,2.7,5.3,5.2,8.3,7.4c1.5,1.1,3,2.2,4.6,3.2
			c1.9,1.2,3.6,1.8,4.6,2.5c0.1,0.1,0.2,0.1,0.3,0.2l0,0c0.4,0.2,0.9,0.4,1.7,0.5c0.7,0.1,1.8,0.1,2.5-0.3c0.8-0.3,1.3-0.7,1.6-1
			c0.2-0.2,0.3-0.3,0.5-0.4l0.2-0.2l1.8-1.8l3.7-3.7l0.9-0.9l0.4-0.4l0.1-0.1l0,0l0.2-0.2l0.2-0.2l0.1-0.1h0.1
			c0.1-0.1,0.1-0.1,0.2-0.2c0.2-0.1,0.4-0.3,0.6-0.4c0.8-0.4,1.4-0.4,2.1-0.2c0.8,0.2,1.3,0.8,2.8,2.2l3.7,3.6l7.3,7.1
			c0.1,0.1,0.3,0.3,0.3,0.3c0,0.1,0.1,0.1,0.1,0.2c0.1,0.1,0.2,0.3,0.3,0.4c0.2,0.3,0.3,0.6,0.4,0.9c0.2,0.6,0.1,1.1-0.1,1.6
			c-0.2,0.6-0.6,1.2-1.1,1.8c-0.7,0.8-1.6,1.6-2.4,2.4c-1.4,1.3-2.9,2.7-4.4,4.4l0,0.4l-0.3,0.3l-0.3,0.3l-0.2,0.2
			c-0.2,0.2-0.5,0.4-0.8,0.6c-0.6,0.4-1.2,0.7-1.8,1c-1.2,0.5-2.7,0.8-4.2,0.7c-0.2,0-0.4,0-0.6,0h-0.2h-0.1l0,0h-0.3l-0.7-0.1
			l-0.6-0.1c-0.8-0.1-1.7-0.3-2.6-0.4c-3.4-0.7-6.9-2-10.3-3.5l-1.3-0.6l-0.3-0.2l0-0.2l-0.7-0.3c-0.9-0.4-1.8-0.9-2.5-1.3
			c-1.6-0.8-3.3-1.8-4.9-2.8c-6.4-3.9-12.3-8.6-17.7-13.9c-1.3-1.3-2.6-2.7-3.9-4.1c-0.6-0.7-1.3-1.4-1.9-2.1
			c-0.6-0.8-1.2-1.5-1.8-2.2c-2.4-2.9-4.6-6-6.7-9.1c-2.3-3.6-4.3-6.9-5.9-9.3c-1.5-2.4-2.7-3.7-3.4-3.1c-0.6,0.5-0.7,2.4,0,5.3
			c0.7,2.8,2.1,6.5,4.5,10.6c2.1,3.6,4.5,7.1,7.1,10.4c2.5,3.3,5.3,6.5,8.3,9.6c5.9,6,12.7,11.3,20.1,15.5c3,1.7,6,3.3,9.2,4.6
			s6.4,2.5,9.9,3.3c1.7,0.4,3.5,0.7,5.3,0.8c1.8,0.2,3.8,0.1,5.8-0.3s3.9-1.2,5.6-2.3c0.9-0.6,1.6-1.2,2.4-2
			c0.2-0.2,0.3-0.3,0.4-0.5l0.2-0.2l0.2-0.2v-0.1l0.1-0.1c0.2-0.3,0.5-0.6,0.7-0.8c1-1.1,2.1-2.2,3.3-3.4c0.6-0.6,1.2-1.2,1.8-1.8
			l0.4-0.5l0.5-0.6c0.3-0.4,0.7-0.8,0.9-1.3c1.2-1.8,1.9-4.3,1.5-6.6C95.213,74.125,94.813,73.025,94.213,72.025z"/>
		<path d="M95.213,3.925L95.213,3.925c-0.1-1.2-0.9-2.3-2.1-2.6l-0.4-0.1c-7.7-2-15.6-0.8-23.4-1.2c-0.4,0-0.9,0.7-1.1,1.1
			c-0.4,1,0.1,1.8,0.8,2.4c2.2,2,4.9,2.9,7.7,3.1c2.9,0.2,5.7,0.5,8.6,0.7c-1.6,1.2-3.1,2.5-4.5,3.9c-3,3.1-5.7,6.4-8.5,9.6
			c-7,3.8-11.6,10.3-17.4,15.4c-0.3,0.2-0.2,1.1,0.1,1.5c0.4,0.9,1.3,1.2,2.2,1.1c2.9-0.1,5.4-1.3,7.5-3c4.9-4.1,10.1-8.1,14.2-13.1
			c0.6-0.5,1.2-1,1.8-1.5c2.9-2.6,5.7-5.2,8.2-8.2c-0.2,4.3-0.1,8.6,0.5,12.9c0.2,1.5,1.1,2.7,2.9,2.6c1.6-0.1,2.8-1.2,3-2.7
			c0.3-2.7,0.7-5.5,0.7-8.2c-0.1-4.4-0.5-8.8-0.7-13.2L95.213,3.925z"/>
	</g>
</g>
<g>
</g>
<g>
</g>
<g>
</g>
<g>
</g>
<g>
</g>
<g>
</g>
<g>
</g>
<g>
</g>
<g>
</g>
<g>
</g>
<g>
</g>
<g>
</g>
<g>
</g>
<g>
</g>
<g>
</g>
</svg>
